<svg xmlns="http://www.w3.org/2000/svg" width="200" height="55"><defs><radialGradient id="a" cx="0" cy="0" r=".5" spreadMethod="pad" gradientTransform="matrix(76.88618 0 0 -76.88618 16.534 37.148)" gradientUnits="userSpaceOnUse" fy="0" fx="0"><stop offset="0" stop-color="#92d4ee"/><stop offset=".31" stop-color="#2facdd"/><stop offset=".51" stop-color="#0994dc"/><stop offset="1" stop-color="#2979c2"/></radialGradient><radialGradient id="b" cx="0" cy="0" r=".5" spreadMethod="pad" gradientTransform="matrix(77.60075 0 0 -77.60075 37.603 6.64)" gradientUnits="userSpaceOnUse" fy="0" fx="0"><stop offset="0" stop-color="#e9e8e8"/><stop offset=".29" stop-color="#bdbbbc"/><stop offset="1" stop-color="#231f20"/></radialGradient><radialGradient id="c" cx="0" cy="0" r=".5" spreadMethod="pad" gradientTransform="matrix(-77.6005 0 0 77.6005 11.648 49.042)" gradientUnits="userSpaceOnUse" fy="0" fx="0"><stop offset="0" stop-color="#fff"/><stop offset=".29" stop-color="#d3d2d2"/><stop offset="1" stop-color="#656262"/></radialGradient></defs><path fill="#4f4c4d" d="M24.62 8.75c10.5 0 19.02 8.58 19.02 19.15 0 10.58-8.52 19.15-19.02 19.15S5.6 38.48 5.6 27.9c0-10.57 8.5-19.15 19.02-19.15zm0 .67c10.14 0 18.36 8.28 18.36 18.48 0 10.2-8.22 18.5-18.36 18.5-10.15 0-18.37-8.3-18.37-18.5S14.47 9.42 24.62 9.42"/><path fill="#a7a5a6" d="M5.97 28.43c0-1.97.22-3.92.8-5.77.77-2.54 1.98-4.77 3.67-6.77 3.02-3.58 7.34-6.1 13.08-6.53 6.1-.37 12.66 2.7 16.4 8.47.64 1 1.45 1.9 1.95 2.85.18.34.27.68.4 1.04.2.62.4 1.27.57 1.96.3 1.35.45 2.8.45 4.28 0 1.4-.16 3.1-.65 4.84-.78 2.78-2.3 5.75-4.58 8.16-3.3 3.47-8.48 5.67-13.3 5.75-7.1.1-13.14-3.7-16.44-9.5-1.45-2.57-2.3-5.57-2.36-8.8"/><path fill="#e9e8e8" d="M6.45 28.56c0-10.07 8.17-18.36 18.25-18.52 12.3-.2 18.25 10.6 18.25 17.94 0 6.76-6.12 18.4-18.2 18.56-7 .1-13.1-3.65-16.13-9.43-1.35-2.56-2.17-5.46-2.17-8.54"/><path fill="url(#a)" d="M8.5 36.78l-.1-.2-.07-.13-.14-.27-.02-.02-.07-.13c-.02-.08-.06-.16-.1-.23l-.07-.16-.12-.28-.05-.12-.1-.27-.1-.2-.07-.2-.08-.2-.07-.2-.1-.26-.04-.15-.1-.26-.06-.2-.08-.27-.03-.13-.1-.35v-.07l-.1-.35-.02-.1-.07-.34-.02-.12c0-.12-.03-.24-.06-.36v-.07l-.08-.4v-.07c-.05-.28-.08-.57-.1-.85l-.02-.08c0-.13-.03-.26-.04-.4v-.06c0-.14-.02-.28-.03-.4v-.07c0-.14 0-.3-.02-.43v-.03-.47c0-10.2 8.22-18.48 18.37-18.48h.52c.14 0 .28 0 .4.02h.05l.37.03h.12c.12 0 .25.03.38.04l.07.02c.12 0 .23.02.35.04h.1l.4.07h.07c.1.03.22.04.33.06l.12.02.37.07h.08l.32.07.1.03.38.1h.08l.33.1.07.03.37.1.1.04.3.1.1.03.35.12.1.04c.1.04.2.08.3.1l.08.05c.1.06.23.1.34.15l.12.05.27.12.1.04.33.15.12.07.26.14.1.05c.1.06.2.1.3.17l.15.07.24.13.08.05.3.18.12.07c.1.05.17.1.25.16l.12.06c.08.06.17.1.25.17l.14.1.17.12.23.16c.06.05.1.1.17.13l.14.1.2.16.17.13.2.15.12.1.2.18.17.15.16.15.12.12.2.18.17.17.12.13.14.15.12.12.23.24.12.12.15.16.07.08.27.3.1.12c.04.05.1.1.14.17.06.1.12.16.18.24.05.05.1.1.13.17l.1.13.13.17c.05.08.1.16.17.24.04.06.1.13.13.2l.07.1c.05.05.1.12.13.18l.16.24.12.2.08.12.1.18C42.03 21.16 43 24.4 43 27.9c0 10.2-8.22 18.5-18.36 18.5-6.95 0-13-3.9-16.12-9.62"/><path fill="#2b74c3" d="M133.75 12.27c-2.84 0-5.3 2.53-5.37 7.74.07 6.4 3.14 8.08 6.68 8.08l2.92.02c1.26 0 1.7 1.24 1.63 2.25-.05 1.05-.68 1.8-1.5 1.8h-9.72v2.68h10.07c2.78 0 3.2-2.76 3.16-4.4-.05-2.72-1.12-5-3.87-4.95h-2.77c-2.47-.02-4.43-1.27-4.5-5.5.03-4.06 1.76-5.1 3.88-5.08h9l.94-2.63c-3.5 0-7.02-.02-10.53 0zm-80.9 0v2.63h15.5l.93-2.63zm17.5 0v25.9h2.2V14.9h7.67c2.18.05 4.47 1.74 4.53 6.05-.03 4.23-1.9 5.8-4 5.8h-1.56l5.15 11.43h2.74l-4.25-9.36c2.34-.97 3.98-3.23 3.98-7.9-.05-4.43-1.9-8.68-6.8-8.65zm25 0l-7.15 25.9h2.15L96.8 14.9h3.17l5.46 20.7H95.35l.93 2.58h12.1l-7.15-25.9zm14.38 0v25.9h2.18V14.9h3.72l5.45 19.93h2.4V12.27h-2.2V28l-4.17-15.73zm14.5 0V35.6h-3.8l-5.46-19.94h-2.3v22.52h2.2V23.12l4 15.06h7.54v-25.9zm30.03 0c-5.58.24-8.34 4.65-8.55 12.86-.14 7.26 2.56 13 6.54 13.04h10.26V22.02h-9.03v2.64h6.85V35.6h-6.92c-3.92 0-5.65-3.86-5.68-10.64.2-6.7 2.48-10.04 6.06-10.06h7.7l.94-2.63zm16.4 0l-7.14 25.9h2.13l6.47-23.28h3.17l5.44 20.7h-10.07l.92 2.58h12.08l-7.13-25.9zm14.12 0v2.62h12.7v3.65l-10 14.9v1.38h12.5v-2.67h-8.9l8.92-13.3v-6.6zm-87.32 3.4l-6.25 22.5h2.13l1.28-4.65.48 1.3h9.3L99.3 15.67zm75.3 0l-6.25 22.5h2.14l1.28-4.65.47 1.3h9.28l-5.05-19.16zm12.02 0v2.62h9.14l-9.33 13.86v6.02H200V35.6h-13.3v-2.43l10.03-14.88v-2.64zm-131.93 0v2.62h5.2v19.88h2.18v-22.5zm8.14 0v22.5h2.17V18.3h3.96l.93-2.63zm12.3 0v22.5h2.18V25.8l5.5 12.38h2.5L78 25.98h2.76c2.7 0 3.3-3.36 3.25-5.06-.07-2.7-1.35-5.23-3.9-5.25zm69.76 0h-8.8c-2.87 0-3.08 2.7-3.04 4.34.03 2.92.9 4.76 3.92 4.75h2.63c2.4 0 4.52 1.56 4.6 5.7-.04 3.98-1.72 5.1-3.78 5.15h-10.22v2.58h9.8l1.72-.02c2.47-.1 4.46-2.97 4.54-7.72-.07-6.43-2.87-8.33-5.5-8.34h-3.96c-1.54-.03-1.78-1.13-1.78-1.96.02-.98.35-1.84 1.6-1.84h7.32zm10.72 0c-2.9 0-5.1 3-5.2 9.3.02 6.66 1.73 9.86 4.8 9.86h6.18V25.4h-6.1v2.64h3.92v4.12h-3.73c-2.05 0-3.05-2.93-3.07-7.03 0-4.3 1.42-6.82 3.8-6.84h5.9l.93-2.63zm-78.3 2.62h4.5c1.65 0 2.04 1.77 2 2.67-.13 2.37-1.37 2.52-1.58 2.54h-4.92zm22.8 1.87l3.3 12H95zm75.32 0l3.3 12h-6.6z"/><path fill="url(#b)" d="M2.66 23.02C5.14-.8 33.73-5.72 49.26 8.98l-.34.43c-.25-.15-1.02-.44-1.5-.58-2.8-.83-6.13.44-7.6 2.4l-.9-.75C36.56 8.5 33.78 7 30.75 6.14 23.8 4.1 17.07 5.84 12.6 8.8c-1.9 1.2-3.62 2.7-5.08 4.43-1.82 2.1-3 4.26-3.8 6.37-.35.87-.64 1.77-.87 2.7l-.2.72"/><path fill="#4f4c4d" d="M2.66 23.02C5.14-.8 33.73-5.72 49.26 8.98l-.34.43C41.32 2.1 28.02-1.2 17.5 3.2 10.2 6.24 4.35 12.26 2.65 23"/><path fill="#231f20" d="M55.58 43.12v6.97h1.82v-3.34l.86 3.33h2.55l.8-3.12v3.1h2.08v-6.96H60.45L59.4 47.4l-1.12-4.28H56.46zm12.93 0l-2.53 6.97h1.82l.45-1.28.46 1.27h4.67L70.9 43.1h-2.1zm8.54 0c-.87 0-2 1.43-2.1 3.3-.04 2.1.8 3.67 1.97 3.67h4.22v-4.3h-3.5v1.6h1.62v1.1h-1.58c-.6-.02-1.03-.97-1-2.08.02-.92.58-1.78 1.1-1.76h2.8l.56-1.54zm6.76 0v6.97h1.94V43.1zm5.64 0c-.73 0-1.24.74-1.28 2.17.02 1.3.26 2.35 1.4 2.4h2.16c.52 0 .46.9.1.9h-3.6v1.5h4.24c.93 0 1.7-.6 1.7-2.08 0-1.5-.72-2.13-1.4-2.15h-2.52c-.38-.03-.45-1.27.06-1.27h3.34l.56-1.48zm6.92 0v1.54h1.92v5.43h2.07v-5.44h1.67l.55-1.54zm8.45 0v6.97h1.86V47.1l1.76 2.97H111l-1.54-2.58c.86-.14 1.3-.8 1.3-2.15-.03-1.68-.8-2.23-1.58-2.25H105.12zm11.08 0l-2.54 6.97h1.82l.46-1.28.46 1.27h4.65l-2.47-6.98h-2.09zm7.14 0v6.97H127.07l.56-1.56h-2.76v-5.42zm8.63 0l-2.54 6.97h1.83l.46-1.28.45 1.27h4.65l-2.47-6.98h-2.09zm13.15 0v6.97h5.2v-1.56h-3.35v-1.16H150v-1.55h-3.35v-1.17h2.8l.55-1.54zm7.62 0v6.97h1.85v-4.62l1.46 4.6h2.9v-6.96h-1.84v4.48l-1.43-4.48zm8.7 0v6.97h5.2v-1.56h-3.36v-1.16h3.36v-1.55h-3.36v-1.17h2.8l.56-1.54zm7.7 0v6.97h1.84V47.1l1.76 2.97H175l-1.54-2.58c.86-.14 1.3-.8 1.3-2.15-.03-1.68-.82-2.23-1.58-2.25H169.12zm10.5 0c-.86 0-2 1.43-2.1 3.3-.03 2.1.8 3.67 1.98 3.67H183.4v-4.3h-3.5v1.6h1.63v1.1h-1.58c-.6-.02-1.03-.97-1-2.08.02-.92.57-1.78 1.1-1.76h2.8l.56-1.54zm6.8 0v6.97h1.94V43.1zm4.4 0v6.97h5.2v-1.56h-3.35v-1.16h3.36v-1.55h-3.36v-1.17h2.8l.55-1.54zm7.54 0v6.97H200V43.1zm-91.4 1.54h1.82c.63 0 .64 1.47.1 1.63h-1.92zm64 0h1.8c.64 0 .65 1.47.1 1.63h-1.9zm-101.1.58l1.16 3.3h-2.37zm47.36 0l1.17 3.3h-2.38zm15.77 0l1.16 3.3h-2.37z"/><path fill="url(#c)" d="M46.6 32.66C44.1 56.48 15.5 61.4 0 46.7l.33-.42c.25.15 1.04.4 1.5.55 2.84.84 6.13-.4 7.6-2.37l.9.76c2.36 1.97 5.14 3.46 8.17 4.32 6.94 2.03 13.68.3 18.16-2.65 1.9-1.23 3.6-2.73 5.07-4.45 1.82-2.1 3-4.26 3.8-6.36.35-.9.64-1.78.88-2.7l.2-.74"/><path fill="#918f8f" d="M46.6 32.66C44.1 56.48 15.5 61.4 0 46.7l.33-.42c7.6 7.32 20.9 10.62 31.43 6.2 7.3-3.04 13.13-9.06 14.83-19.82"/><path fill="#fff" d="M30.47 18.35c-3.23-.02-4.9.3-5.72 2.47l-4.03 11.1c-.6 1.47-1.73 2.43-3.66 2.44h-10c.3.83.68 1.64 1.1 2.42h9.08c2.13-.03 5.43.17 6.48-2.76l4.33-11.8c.47-1.24 1.5-1.45 2.7-1.43H41.9c-.34-.86-.74-1.67-1.2-2.44H30.63zm11.72 3.17h-9.84c-2.43-.04-2.97.67-3.6 2.44-1.43 3.97-2.5 7.04-3.96 11-.72 1.94-2.74 2.57-4.94 2.56H8.56c.38.64.8 1.25 1.25 1.84h11.67c2.37.02 4.4-.65 5.43-3.38l3.76-10.37c.53-1.4 1.23-2.24 2.63-2.24h9.44c-.15-.63-.34-1.24-.55-1.84zm-6.57 2.5c-2.66 0-3.4.6-4.23 2.8-1.32 3.65-2.3 6.4-3.6 10.04-.98 2.6-2.9 3.15-5.7 3.17H10.35c.24.27.48.55.73.8H23.3c2.7.03 4.86-.57 5.7-3.06l3.96-10.95c.44-1.1 1.32-1.98 2.78-1.97H43.04c-.04-.28-.1-.55-.15-.82h-6.5z"/></svg>